<svg xmlns="http://www.w3.org/2000/svg" viewBox="0 0 96 96">
  <defs>
    <radialGradient id="bg" cx="50%" cy="35%" r="75%"><stop stop-color="#20245f"/><stop offset="1" stop-color="#070b24"/></radialGradient>
    <linearGradient id="g" x1="23" y1="24" x2="73" y2="72" gradientUnits="userSpaceOnUse"><stop stop-color="#ff68d7"/><stop offset="1" stop-color="#72dfff"/></linearGradient>
    <filter id="glow" x="-30%" y="-30%" width="160%" height="160%"><feGaussianBlur stdDeviation="1.3" result="b"/><feMerge><feMergeNode in="b"/><feMergeNode in="SourceGraphic"/></feMerge></filter>
  </defs>
  <rect x="2" y="2" width="92" height="92" rx="24" fill="url(#bg)" stroke="#383b86" stroke-width="2"/>
  <g fill="none" stroke="url(#g)" stroke-linecap="round" stroke-linejoin="round" stroke-width="3.5" filter="url(#glow)">
    <path d="M21 29h37a8 8 0 0 1 8 8v9a8 8 0 0 1-8 8H39L29 63l2-9H21a8 8 0 0 1-8-8v-9a8 8 0 0 1 8-8Z"/>
    <path d="M50 60h21a8 8 0 0 0 8-8v-8"/>
    <path d="M27 41h3M39 41h3M51 41h3"/>
  </g>
</svg>
