<svg xmlns="http://www.w3.org/2000/svg" viewBox="0 0 96 96">
  <defs>
    <radialGradient id="bg" cx="50%" cy="35%" r="75%"><stop stop-color="#242060"/><stop offset="1" stop-color="#070b24"/></radialGradient>
    <linearGradient id="g" x1="28" y1="20" x2="68" y2="78" gradientUnits="userSpaceOnUse"><stop stop-color="#cb73ff"/><stop offset=".52" stop-color="#7a7dff"/><stop offset="1" stop-color="#45e5ff"/></linearGradient>
    <filter id="glow" x="-30%" y="-30%" width="160%" height="160%"><feGaussianBlur stdDeviation="1.4" result="b"/><feMerge><feMergeNode in="b"/><feMergeNode in="SourceGraphic"/></feMerge></filter>
  </defs>
  <rect x="2" y="2" width="92" height="92" rx="24" fill="url(#bg)" stroke="#40378f" stroke-width="2"/>
  <circle cx="48" cy="48" r="31" fill="none" stroke="#8a66ff" stroke-opacity=".13"/>
  <g transform="rotate(45 48 48)" stroke="url(#g)" stroke-linecap="round" stroke-linejoin="round" stroke-width="3.5" filter="url(#glow)">
    <path d="M48 15c11 9 16 23 15 39L55 66H41l-8-12c-1-16 4-30 15-39Z" fill="url(#g)" fill-opacity=".16"/>
    <circle cx="48" cy="36" r="6" fill="#101747"/>
    <path d="m34 48-11 13 12-3M62 48l11 13-12-3M41 66l7 15 7-15" fill="none"/>
    <path d="M44 72v8M52 72v8" fill="none"/>
  </g>
  <g fill="#70eaff"><circle cx="25" cy="30" r="2"/><circle cx="72" cy="29" r="1.7"/></g>
</svg>
